<svg width="104" height="104" viewBox="0 0 104 104" fill="none" xmlns="http://www.w3.org/2000/svg">
<path d="M82.3333 0H21.6667C9.70233 0 0 9.70233 0 21.6667V82.3333C0 94.2977 9.70233 104 21.6667 104H82.3333C94.302 104 104 94.2977 104 82.3333V21.6667C104 9.70233 94.302 0 82.3333 0ZM81.731 40.027C82.6367 60.034 67.717 82.342 41.301 82.342C33.267 82.342 25.792 79.989 19.4957 75.9503C27.0443 76.8387 34.5757 74.7457 40.5557 70.0613C34.3287 69.9443 29.0767 65.832 27.2697 60.1813C29.5013 60.606 31.694 60.4803 33.6917 59.9387C26.8493 58.565 22.1303 52.403 22.282 45.812C24.1973 46.878 26.3943 47.5193 28.7213 47.593C22.3903 43.3593 20.5963 34.996 24.3187 28.6C31.3343 37.206 41.8167 42.8697 53.638 43.4633C51.5623 34.567 58.318 26 67.5003 26C71.5867 26 75.2873 27.7247 77.8787 30.4937C81.12 29.8567 84.1663 28.6737 86.918 27.0443C85.852 30.368 83.5987 33.1543 80.665 34.9137C83.5423 34.567 86.2853 33.8043 88.8333 32.6733C86.931 35.516 84.5173 38.0207 81.731 40.027Z" fill="#F8F8F8"/>
</svg>
